<mxfile host="app.diagrams.net" modified="2023-05-04T15:41:39.721Z" agent="Mozilla/5.0 (Macintosh; Intel Mac OS X 10_15_7) AppleWebKit/537.36 (KHTML, like Gecko) Chrome/112.0.0.0 Safari/537.36" version="21.2.7" etag="Bu1RiwILy60xBNoIia_9" type="device">
  <diagram id="vkWG_6wECkW66IWoLdr8" name="Page-1">
    <mxGraphModel dx="658" dy="408" grid="1" gridSize="10" guides="1" tooltips="1" connect="1" arrows="1" fold="1" page="1" pageScale="1" pageWidth="827" pageHeight="1169" math="1" shadow="0">
      <root>
        <mxCell id="0" />
        <mxCell id="1" parent="0" />
        <mxCell id="kMGP4MnfzTjh34_QsMAE-1" value="" style="rounded=0;whiteSpace=wrap;html=1;fillColor=#FF0000;strokeColor=none;" vertex="1" parent="1">
          <mxGeometry x="380" y="160" width="10" height="40" as="geometry" />
        </mxCell>
        <mxCell id="kMGP4MnfzTjh34_QsMAE-2" value="" style="rounded=0;whiteSpace=wrap;html=1;fillColor=#000000;strokeColor=none;" vertex="1" parent="1">
          <mxGeometry x="400" y="160" width="10" height="40" as="geometry" />
        </mxCell>
        <mxCell id="kMGP4MnfzTjh34_QsMAE-3" value="" style="rounded=0;whiteSpace=wrap;html=1;fillColor=#000000;strokeColor=none;" vertex="1" parent="1">
          <mxGeometry x="360" y="160" width="10" height="40" as="geometry" />
        </mxCell>
        <mxCell id="kMGP4MnfzTjh34_QsMAE-5" value="" style="rounded=0;whiteSpace=wrap;html=1;fillColor=#FF0000;strokeColor=none;" vertex="1" parent="1">
          <mxGeometry x="340" y="160" width="10" height="40" as="geometry" />
        </mxCell>
        <mxCell id="kMGP4MnfzTjh34_QsMAE-6" value="" style="rounded=0;whiteSpace=wrap;html=1;fillColor=#000000;strokeColor=none;" vertex="1" parent="1">
          <mxGeometry x="320" y="160" width="10" height="40" as="geometry" />
        </mxCell>
        <mxCell id="kMGP4MnfzTjh34_QsMAE-11" value="" style="rounded=0;whiteSpace=wrap;html=1;fillColor=#FF0000;strokeColor=none;" vertex="1" parent="1">
          <mxGeometry x="420" y="160" width="10" height="40" as="geometry" />
        </mxCell>
        <mxCell id="kMGP4MnfzTjh34_QsMAE-12" value="" style="rounded=0;whiteSpace=wrap;html=1;fillColor=#000000;strokeColor=none;" vertex="1" parent="1">
          <mxGeometry x="440" y="160" width="10" height="40" as="geometry" />
        </mxCell>
        <mxCell id="kMGP4MnfzTjh34_QsMAE-13" value="" style="rounded=0;whiteSpace=wrap;html=1;fillColor=#000000;strokeColor=none;" vertex="1" parent="1">
          <mxGeometry x="460" y="160" width="10" height="40" as="geometry" />
        </mxCell>
        <mxCell id="kMGP4MnfzTjh34_QsMAE-14" value="" style="rounded=0;whiteSpace=wrap;html=1;fillColor=#000000;strokeColor=none;" vertex="1" parent="1">
          <mxGeometry x="480" y="160" width="10" height="40" as="geometry" />
        </mxCell>
        <mxCell id="kMGP4MnfzTjh34_QsMAE-15" value="" style="rounded=0;whiteSpace=wrap;html=1;fillColor=#000000;strokeColor=none;" vertex="1" parent="1">
          <mxGeometry x="500" y="160" width="10" height="40" as="geometry" />
        </mxCell>
        <mxCell id="kMGP4MnfzTjh34_QsMAE-17" value="" style="endArrow=none;html=1;curved=1;" edge="1" parent="1">
          <mxGeometry width="50" height="50" relative="1" as="geometry">
            <mxPoint x="320" y="210" as="sourcePoint" />
            <mxPoint x="430" y="210" as="targetPoint" />
            <Array as="points">
              <mxPoint x="380" y="230" />
            </Array>
          </mxGeometry>
        </mxCell>
        <mxCell id="kMGP4MnfzTjh34_QsMAE-18" value="" style="endArrow=none;html=1;curved=1;" edge="1" parent="1">
          <mxGeometry width="50" height="50" relative="1" as="geometry">
            <mxPoint x="440" y="210" as="sourcePoint" />
            <mxPoint x="510" y="210" as="targetPoint" />
            <Array as="points">
              <mxPoint x="480" y="230" />
            </Array>
          </mxGeometry>
        </mxCell>
        <mxCell id="kMGP4MnfzTjh34_QsMAE-19" value="$$2f$$" style="text;html=1;strokeColor=none;fillColor=none;align=center;verticalAlign=middle;whiteSpace=wrap;rounded=0;fontFamily=Computer Modern;fontSource=https%3A%2F%2Ffonts.googleapis.com%2Fcss%3Ffamily%3DComputer%2BModern;fontSize=18;" vertex="1" parent="1">
          <mxGeometry x="360" y="220" width="40" height="20" as="geometry" />
        </mxCell>
        <mxCell id="kMGP4MnfzTjh34_QsMAE-20" value="$$f + 1$$" style="text;html=1;strokeColor=none;fillColor=none;align=center;verticalAlign=middle;whiteSpace=wrap;rounded=0;fontFamily=Computer Modern;fontSource=https%3A%2F%2Ffonts.googleapis.com%2Fcss%3Ffamily%3DComputer%2BModern;fontSize=18;" vertex="1" parent="1">
          <mxGeometry x="460" y="220" width="40" height="20" as="geometry" />
        </mxCell>
      </root>
    </mxGraphModel>
  </diagram>
</mxfile>
